<svg version="1.2" xmlns="http://www.w3.org/2000/svg" viewBox="0 0 24 24" width="24" height="24"><style>.a{opacity:.3}.b{fill:currentColor;stroke:currentColor}</style><path fill="currentColor" class="a" d="m22 8.2v7.5c0 3.4-2.8 6.3-6.3 6.3h-7.5c-3.4 0-6.2-2.8-6.2-6.3v-7.5c0-3.4 2.8-6.2 6.2-6.2h7.5c3.5-0.1 6.3 2.7 6.3 6.2zm-10-0.9c-2.5 0-4.6 2.1-4.6 4.6 0 2.5 2.1 4.6 4.6 4.6 2.5 0 4.6-2.1 4.6-4.6 0-2.6-2.1-4.6-4.6-4.6z"/><path fill="currentColor" d="m12 17.5c-3.1 0-5.6-2.5-5.6-5.6 0-3.1 2.5-5.6 5.6-5.6 3.1 0 5.6 2.5 5.6 5.6 0 3.1-2.5 5.6-5.6 5.6zm0-9.2c-2 0-3.6 1.6-3.6 3.6 0 2 1.6 3.6 3.6 3.6 2 0 3.6-1.6 3.6-3.6 0-2-1.6-3.6-3.6-3.6z"/><path fill="currentColor" class="b" d="m16.4 10.6l-0.1 11.3"/><path fill="currentColor" class="b" d="m7.4 10.6l-0.1 11.3"/></svg>