<svg version="1.2" xmlns="http://www.w3.org/2000/svg" viewBox="0 0 800 805" width="800" height="805"><defs><clipPath clipPathUnits="userSpaceOnUse" id="cp1"><path d="m416 37.32h288v303.87h-288z"/></clipPath><clipPath clipPathUnits="userSpaceOnUse" id="cp2"><path d="m379.04 70l317.17-64.72 61.82 302.38-317.18 64.77z"/></clipPath><clipPath clipPathUnits="userSpaceOnUse" id="cp3"><path d="m379.04 70l317.17-64.72 61.82 302.38-317.18 64.77z"/></clipPath><clipPath clipPathUnits="userSpaceOnUse" id="cp4"><path d="m213.33 143.94h218.67v154.6h-218.67z"/></clipPath><clipPath clipPathUnits="userSpaceOnUse" id="cp5"><path d="m212.21 143.3l203.04-21.32 20.32 193.04-203.04 21.37z"/></clipPath><clipPath clipPathUnits="userSpaceOnUse" id="cp6"><path d="m414.67 122.03l-203.1 21.32 20.32 193.1 203.04-21.33z"/></clipPath><clipPath clipPathUnits="userSpaceOnUse" id="cp7"><path d="m138.67 602.42h149.33v106.62h-149.33z"/></clipPath><clipPath clipPathUnits="userSpaceOnUse" id="cp8"><path d="m123.63 696.09l60.58-120.06 115.63 58.32-60.59 120z"/></clipPath><clipPath clipPathUnits="userSpaceOnUse" id="cp9"><path d="m185.17 574.16l-60.58 120.01 115.62 58.32 60.54-120.01z"/></clipPath></defs><style>.a{fill:#038f48}.b{fill:#fff}.c{fill:#028e47}</style><g clip-path="url(#cp1)"><g clip-path="url(#cp2)"><g clip-path="url(#cp3)"><path fill-rule="evenodd" class="a" d="m636.3 73c-149.9 29.9-215.5 116.3-193.1 261.8 0.5 2.1-2.1 2.7-3.2 0.5-16-45.3-23.5-89-19.2-128.5 14.4-131.6 161.6-178.5 276.8-161 5.3 0.6 8 7.5 4.3 11.8-69.9 83.7-21.4 263.3-240.6 226 11.8-105 64.6-179.1 175-210.6z"/></g></g></g><g clip-path="url(#cp4)"><g clip-path="url(#cp5)"><g clip-path="url(#cp6)"><path fill-rule="evenodd" class="a" d="m260.8 172.7c95.5-10.6 151.5 28.8 165.9 120.5 0 1.1 1.6 1.1 1.6 0 1-30.9-2.7-58.1-12.8-81-33.6-76.3-130.7-76.3-196.8-44.3-3.2 1.6-3.2 5.9 0 8 57.6 36.8 62.4 154.1 187.2 90.1-27.2-60.8-72.6-95.4-145.1-93.3z"/></g></g></g><path class="b" d="m57.6 172.2h121.6v475.5h-121.6z"/><path fill-rule="evenodd" class="b" d="m577.6 300.7v283.6q0 97-52.3 145.5-52.8 48-151.4 48-51.2 0-96.6-11.2-44.8-11.7-76.2-34.1l44.2-85.3q21.4 17.1 53.9 27.2 32 10.1 63.5 10.1 48 0 70.9-21.3 22.4-21.3 22.4-62.9v-11.2q-35.7 41-103.5 41-17 0-33.6-3.2c81.1-3.7 68.8-92.7 108.3-134.8 2.7-2.2 1.1-6.4-2.1-7.5-69.9-14.4-161.6 9.1-175 89q-1.6 11.8-1.6 24-26.1-19.2-43.2-47.4-23.4-38.4-23.4-88 0-49.6 23.4-88 23-37.8 61.9-58.6 39.5-20.8 85.3-20.8 74.2 0 108.8 48v-42.1zm-310.4 308.6q-3.2-2.1-6.9-4.2c9.1-60.3 51.7-94.9 126.4-105.6-65.1 14.4-99.7 54.4-112.5 113q-3.2-1.6-7-3.2z"/><g clip-path="url(#cp7)"><g clip-path="url(#cp8)"><g clip-path="url(#cp9)"><path fill-rule="evenodd" class="c" d="m157.9 679.2c28.8-57.6 71.4-74.7 128-49.6 1 0.5 1.6-0.5 0.5-1.1-16.5-11.7-33.6-19.7-50.1-22.4-55-8.5-90.7 46.4-96.6 94.9 0 2.7 2.2 4.3 4.8 3.2 41.6-19.2 109.4 20.8 118.4-72.5-43.7-6.9-80 5.9-105 47.5z"/></g></g></g></svg>