<?xml version="1.0" encoding="utf-8"?>
<!-- Generator: Adobe Illustrator 27.0.0, SVG Export Plug-In . SVG Version: 6.00 Build 0)  -->
<svg version="1.0" id="Layer_1" xmlns="http://www.w3.org/2000/svg" xmlns:xlink="http://www.w3.org/1999/xlink" x="0px" y="0px"
	 viewBox="0 0 95 27.6" enable-background="new 0 0 95 27.6" xml:space="preserve">
<path fill-rule="evenodd" clip-rule="evenodd" fill="#038F48" d="M52,1.4c-5.2,1-7.5,4-6.7,9.1c0,0.1-0.1,0.1-0.1,0
	c-0.6-1.6-0.8-3.1-0.7-4.4c0.5-4.6,5.6-6.2,9.6-5.6c0.2,0,0.3,0.2,0.1,0.4c-2.4,2.9-0.7,9.1-8.3,7.8C46.3,5,48.1,2.5,52,1.4z"/>
<path fill-rule="evenodd" clip-rule="evenodd" fill="#038F48" d="M39,4.8c3.3-0.4,5.2,1,5.7,4.2c0,0.1,0.1,0,0.1,0
	c0-1.1-0.1-2-0.5-2.8c-1.2-2.6-4.5-2.6-6.8-1.5c-0.1,0.1-0.1,0.2,0,0.3c2,1.3,2.2,5.3,6.5,3.1C43.1,5.9,41.5,4.7,39,4.8z"/>
<path fill-rule="evenodd" clip-rule="evenodd" fill="#FFFFFF" d="M36.7,23.9l3.3-1.6c0.6,1,1.7,1.5,3.2,1.5c0.7,0,1.3-0.2,2-0.7
	c0.6-0.5,0.9-1.1,0.9-2v-0.9c-0.7,0.8-2,1.2-3.8,1.2c-1.7,0-3.1-0.6-4.2-1.8c-1.1-1.2-1.6-2.6-1.6-4.4c0-1.7,0.5-3.2,1.6-4.4
	s2.5-1.8,4.2-1.8c1.5,0,2.8,0.5,3.8,1.4H46V9.3h4v12c0,1.9-0.6,3.3-1.9,4.4c-1.3,1.1-2.9,1.6-5,1.6C39.8,27.3,37.7,26.1,36.7,23.9
	L36.7,23.9z M41.5,13.2c-0.5,0.5-0.8,1.2-0.8,2c0,0.8,0.2,1.5,0.8,2c0.5,0.5,1.2,0.8,2,0.8c0.8,0,1.4-0.3,1.9-0.8s0.8-1.2,0.8-2
	c0-0.8-0.3-1.5-0.8-2c-0.5-0.5-1.2-0.8-1.9-0.8C42.6,12.4,42,12.7,41.5,13.2L41.5,13.2z"/>
<path fill="#FFFFFF" d="M50.9,21V9.3h4V11h0c0-0.1,0.1-0.1,0.2-0.2c0.1-0.1,0.2-0.2,0.4-0.5c0.2-0.2,0.5-0.4,0.7-0.6
	c0.3-0.2,0.6-0.4,1-0.5c0.4-0.1,0.8-0.2,1.3-0.2c0.5,0,0.9,0.1,1.3,0.2c0.4,0.1,0.8,0.2,0.9,0.4l0.3,0.2l-1.7,3.4
	c-0.5-0.4-1.2-0.6-2.1-0.6c-0.5,0-0.9,0.1-1.2,0.3c-0.4,0.2-0.6,0.5-0.8,0.8c-0.1,0.3-0.2,0.6-0.3,0.8c-0.1,0.2-0.1,0.4-0.1,0.5V21
	H50.9z"/>
<path fill-rule="evenodd" clip-rule="evenodd" fill="#FFFFFF" d="M61.4,19.6c-1.3-1.2-1.9-2.6-1.9-4.4s0.7-3.3,2-4.4
	c1.4-1.2,3-1.8,5-1.8c2,0,3.6,0.6,5,1.8s2,2.6,2,4.4s-0.7,3.3-2,4.4c-1.3,1.2-3,1.7-5,1.7C64.4,21.3,62.7,20.7,61.4,19.6L61.4,19.6z
	 M64.5,13.2c-0.5,0.5-0.8,1.2-0.8,2c0,0.8,0.2,1.5,0.8,2c0.5,0.5,1.2,0.8,2,0.8c0.8,0,1.4-0.3,1.9-0.8c0.5-0.5,0.8-1.2,0.8-2
	c0-0.8-0.3-1.5-0.8-2c-0.5-0.5-1.2-0.8-1.9-0.8C65.7,12.4,65,12.7,64.5,13.2z"/>
<path fill="#FFFFFF" d="M80.6,21h-2.7L71.6,9.3h4.7l2.9,6.3l2.8-6.3h2.8l2.8,6.3l2.9-6.3H95L88.7,21H86l-2.7-6.1L80.6,21z"/>
<path fill="#FFFFFF" d="M0,5.2h4.2v16.5H0V5.2z"/>
<path fill-rule="evenodd" clip-rule="evenodd" fill="#FFFFFF" d="M17.4,15.7c0,0,0,0.4-0.1,1.1H8.5c0.2,0.6,0.5,1.1,1,1.4
	c0.5,0.3,1.2,0.5,1.9,0.5c0.6,0,1.1-0.1,1.5-0.2c0.4-0.2,0.9-0.4,1.3-0.8l2.2,2.3c-1.2,1.3-2.9,2-5.1,2c-1.4,0-2.7-0.3-3.7-0.8
	c-1.1-0.5-1.9-1.3-2.5-2.2c-0.6-0.9-0.9-2-0.9-3.2c0-1.2,0.3-2.2,0.8-3.2s1.4-1.7,2.4-2.2s2.1-0.8,3.4-0.8c1.2,0,2.3,0.2,3.3,0.8
	c1,0.5,1.8,1.2,2.3,2.2C17.1,13.3,17.4,14.4,17.4,15.7z M10.9,12.4c-0.6,0-1.2,0.2-1.6,0.6c-0.4,0.4-0.7,0.9-0.8,1.5h4.9
	c-0.1-0.6-0.4-1.1-0.8-1.5C12.1,12.6,11.6,12.4,10.9,12.4z"/>
<path fill-rule="evenodd" clip-rule="evenodd" fill="#FFFFFF" d="M22.6,9.4c2,0,3.5,0.5,4.6,1.4c1.1,0.9,1.6,2.3,1.6,4.2v6.7h-3.9
	v-1.5c-0.6,1.2-1.8,1.8-3.6,1.8c-0.9,0-1.7-0.2-2.4-0.5c-0.2-0.1-0.4-0.2-0.5-0.2c0.2-2.3,1.8-3.6,4.5-3.9c-2.4,0.5-3.6,1.9-4,4.1
	c4.6,1.2,3.9-2.7,5.5-4.3c0.1-0.1,0.1-0.2-0.1-0.3c-2.4-0.6-5.6,0.2-6.1,2.9C18,20,17.9,20.4,18,20.9c-0.3-0.2-0.5-0.5-0.7-0.8
	c-0.4-0.6-0.5-1.2-0.5-1.9c0-1.1,0.4-2,1.3-2.6c0.9-0.6,2.2-0.9,4-0.9h2.4c-0.1-1.3-0.9-1.9-2.6-1.9c-0.6,0-1.2,0.1-1.8,0.3
	c-0.6,0.2-1.1,0.4-1.5,0.8l-1.4-2.9c0.7-0.4,1.5-0.8,2.4-1C20.6,9.6,21.6,9.4,22.6,9.4z"/>
<path fill="#FFFFFF" d="M34.1,10.1h2.9v3.2h-2.7v8.4H30v-8.4h-1.8v-3.2H30V9.8c0-1.5,0.4-2.6,1.3-3.5C32.2,5.4,33.4,5,35,5
	c0.5,0,1.1,0.1,1.6,0.1c0.5,0.1,0.9,0.3,1.2,0.5l-1.1,3c-0.4-0.2-0.8-0.4-1.3-0.4c-0.4,0-0.8,0.1-1,0.4s-0.4,0.6-0.4,1.2L34.1,10.1z
	"/>
<path fill-rule="evenodd" clip-rule="evenodd" fill="#028E47" d="M14.8,23.7c1-2,2.5-2.6,4.4-1.7c0,0,0,0,0-0.1
	c-0.6-0.4-1.2-0.7-1.8-0.8c-1.9-0.3-3.1,1.6-3.3,3.3c0,0.1,0.1,0.1,0.2,0.1c1.5-0.7,3.8,0.7,4.1-2.5C16.9,21.7,15.7,22.2,14.8,23.7z
	"/>
</svg>
